<?xml version="1.0" encoding="UTF-8"?>
<!DOCTYPE svg PUBLIC "-//W3C//DTD SVG 1.1//EN" "http://www.w3.org/Graphics/SVG/1.1/DTD/svg11.dtd">
<svg version="1.1" xmlns="http://www.w3.org/2000/svg" xmlns:xlink="http://www.w3.org/1999/xlink" x="0" y="0" width="906" height="931" viewBox="0, 0, 906, 931">
  <defs>
    <clipPath id="Clip_1">
      <path d="M-0,0.503 L905.257,0.503 L905.257,930.94 L-0,930.94 z"/>
    </clipPath>
  </defs>
  <g id="Layer_1">
    <path d="M795.134,453.072 C793.648,459.624 791.265,465.835 787.119,471.145 C785.288,473.489 785.778,474.435 787.967,476.031 C818.907,498.594 832.542,530.019 832.791,567.36 C833.16,622.903 790.678,663.927 735.146,661.853 C704.592,660.712 679.309,647.979 660.266,623.734 C658.087,620.961 656.812,620.464 653.662,622.58 C641.773,630.567 629.138,637.283 615.776,642.467 C611.925,643.961 612.133,645.159 614.24,648.185 C634.859,677.79 652.201,709.124 663.547,743.523 C670.738,765.324 674.993,787.636 674.234,810.701 C672.812,853.927 653.424,887.663 619.527,913.636 C615.982,916.352 612.499,919.214 608.379,921.092 C606.294,921.326 606.347,919.697 606.442,918.516 C606.86,913.31 606.153,908.06 607.085,902.886 C608.73,898.743 612.699,896.844 615.807,894.195 C642.734,871.243 656.532,842.259 656.846,806.781 C657.061,782.562 651.318,759.6 642.764,737.231 C633.392,712.724 621.088,689.704 606.496,667.903 C604.274,664.584 601.976,661.311 600.016,657.826 C596.632,651.281 596.615,651.219 589.398,653.279 C585.744,654.322 582.001,655.031 578.396,656.278 C575.013,657.143 574.231,659.336 574.419,662.665 C575.17,675.917 573.729,688.917 569.335,701.526 C566.525,709.588 562.071,716.489 555.198,721.63 C552.687,723.509 551.563,725.748 551.585,728.836 C551.627,734.662 551.728,740.492 551.545,746.316 C551.237,756.096 547.153,760.318 537.294,760.366 C504.83,760.524 472.364,760.531 439.899,760.363 C429.497,760.309 425.823,756.382 425.717,746.019 C425.664,740.865 425.387,735.691 426.371,730.576 C427.042,727.087 425.815,724.464 422.94,722.389 C413.398,715.503 408.363,705.732 405.577,694.626 C403.006,684.378 402.257,673.922 402.76,663.403 C402.95,659.448 401.759,656.955 397.713,656.23 C391.184,654.338 384.49,652.989 378.14,650.485 C371.415,648.176 371.508,648.261 366.475,653.769 C350.648,671.088 335.288,688.827 319.413,706.106 C313.451,712.596 307.751,719.345 301.616,725.67 C295.418,732.059 290.558,731.771 284.853,724.95 C275.238,713.453 265.86,701.76 256.471,690.078 C255.323,688.648 254.015,687.34 252.95,685.865 C250.778,682.856 249.005,683.444 246.552,685.759 C233.001,698.547 217.525,708.04 199.241,712.45 C195.88,713.26 194.8,714.472 196.45,717.962 C210.012,746.651 225.181,774.365 245.691,798.789 C251.684,805.926 258.388,812.401 266.086,817.831 C276.342,825.065 287.166,825.568 298.332,820.873 C311.684,815.259 323.111,806.65 333.858,797.055 C346.061,786.161 356.886,773.996 367.294,761.426 C368.49,759.98 369.477,757.818 372.087,758.894 C373.245,760.333 372.78,761.885 371.909,763.048 C367.406,769.064 367.332,775.964 367.521,782.998 C367.59,785.571 367.995,788.424 365.226,790.165 C349.893,806.946 333.457,822.439 313.126,833.099 C298.701,840.662 283.611,844.609 267.632,838.219 C253.484,832.562 242.837,822.22 233.165,810.876 C209.632,783.278 192.925,751.518 177.725,718.888 C176.151,715.51 174.559,714.057 170.501,713.83 C130.335,711.588 94.036,681.64 92.536,637.682 C91.66,612.014 101.681,590.312 120.98,573.227 C123.708,570.811 123.785,569.403 122.036,566.443 C110.913,547.628 101.348,528.124 97.966,506.227 C95.328,489.15 101.327,476.447 114.817,469.73 C129.138,462.599 147.418,465.128 158.296,476.385 C173.339,491.954 184.815,510.047 194.206,529.48 C196.659,534.555 198.966,539.727 200.916,545.011 C202.004,547.958 203.402,549.41 206.651,550.14 C239.715,557.572 264.281,583.284 269.621,616.489 C272.227,632.693 269.434,648.348 261.776,662.914 C260.171,665.965 260.449,667.705 262.57,670.249 C272.378,682.014 281.973,693.957 291.588,705.882 C293.029,707.668 293.947,708.694 296.034,706.352 C315.624,684.37 335.324,662.485 355.217,640.322 C339.111,632.932 324.149,624.34 310.358,613.787 C269.931,582.852 245.322,541.533 231.478,493.235 C230.532,489.934 229.28,488.729 225.923,488.573 C196.859,487.225 182.59,467.363 181.19,440.916 C180.569,429.185 181.212,417.594 186.258,406.72 C187.342,404.383 186.269,402.496 185.749,400.512 C175.244,360.392 175.288,320.246 185.317,280.058 C186.317,279.643 187.254,280.04 188.188,280.308 C192.648,281.586 195.85,279.944 198.15,276.098 C199.159,274.411 200.036,272.606 201.446,271.216 C202.423,270.252 203.556,268.719 204.934,270.882 C205.694,273.294 204.689,275.487 204.045,277.701 C196.808,302.582 194.499,328.028 195.771,353.8 C196.279,364.095 197.783,374.327 200.015,384.436 C200.809,388.033 202.358,389.264 205.919,387.941 C208.419,387.011 211.085,386.504 213.763,386.617 C217.608,386.779 219.068,384.707 219.497,381.243 C220.213,375.462 221.003,369.688 222.039,363.956 C225.083,347.601 228.721,331.389 233.701,315.491 C245.473,277.911 262.934,243.465 289.061,213.668 C295.986,205.77 303.405,198.408 311,191.184 C317.254,186.792 324.747,185.499 331.737,182.97 C338.918,180.371 346.334,178.513 353.77,176.793 C355.711,176.345 357.99,175.114 359.439,177.827 C358.938,180.048 357.043,180.907 355.36,181.945 C311.28,209.123 280.66,247.471 260.965,295.055 C248.565,325.013 241.156,356.227 237.913,388.325 C236.516,402.154 236.89,416.249 238.173,430.224 C238.658,435.518 239.434,440.799 239.547,446.129 C243.153,470.254 248.374,493.952 257.984,516.499 C269.251,544.24 285.571,568.638 307.627,588.853 C332.122,611.304 360.902,626.363 392.794,635.494 C414.16,641.612 435.957,645.112 458.129,646.852 C475.621,648.225 493.154,648.375 510.549,647.411 C551.279,645.151 590.807,637.261 627.349,617.92 C663.625,598.719 691.318,571.004 710.311,534.628 C713.085,529.315 715.826,523.974 718.217,518.467 C728.539,493.754 734.569,467.961 737.663,441.423 C738.345,431.643 739.345,421.875 739.572,412.084 C740.266,382.165 734.169,353.243 726.212,324.623 C725.724,322.866 725.029,321.15 725.088,319.277 C725.26,317.072 726.646,316.06 728.669,315.834 C732.469,315.409 736.299,315.463 740.112,315.4 C743.325,315.348 743.951,318.119 744.7,320.489 C749.064,334.298 751.957,348.452 754.51,362.682 C755.654,369.058 756.837,375.444 757.38,381.894 C757.691,385.589 759.408,386.641 762.817,386.637 C769.278,386.628 775.262,388.462 780.663,392.079 C783.383,393.981 783.879,397.024 784.566,399.916 C785.462,403.692 786.987,406.787 791.187,407.807 C793.501,408.368 794.736,410.145 795.415,412.332 C799.245,424.66 799.537,437.161 797.199,449.782 C796.95,451.128 796.313,452.284 795.134,453.072" fill="#6E4100"/>
    <g clip-path="url(#Clip_1)">
      <path d="M397.014,654.602 C404.357,656.708 404.388,656.709 404.277,664.563 C404.076,678.788 404.926,692.838 411.242,705.953 C414.402,712.515 418.659,718.257 425.027,721.998 C427.637,723.532 428.15,725.479 428.044,728.162 C427.775,734.969 427.522,741.782 427.511,748.592 C427.499,755.503 430.223,758.553 437.106,758.579 C471.39,758.707 505.676,758.699 539.961,758.592 C546.703,758.571 549.591,755.491 549.765,748.646 C549.947,741.494 549.809,734.334 549.813,727.177 C549.815,725.361 549.651,723.615 551.583,722.36 C565.948,713.03 570.161,698.399 572.136,682.638 C573.111,674.861 573.286,667.086 572.509,659.256 C572.001,654.131 577.109,656.35 579.262,654.633 C582.986,653.815 584.521,655.609 584.629,659.12 C584.644,659.619 584.711,660.118 584.694,660.616 C584.124,677.43 586.081,694.183 585.804,711.003 C585.558,725.966 587.281,740.91 586.77,755.895 C586.646,759.535 588.037,762.788 589.854,765.782 C593.798,772.28 594.857,779.24 594.829,786.786 C594.726,814.74 593.741,842.679 593.422,870.628 C593.25,885.746 593.043,900.893 592.694,916.024 C592.638,918.446 593.167,921.104 590.856,922.963 C575.222,922.916 559.589,922.826 543.955,922.83 C491.396,922.843 438.838,922.889 386.279,922.923 C384.281,921.112 384.616,918.659 384.616,916.379 C384.618,899.225 383.75,882.088 383.374,864.945 C382.816,839.484 382.212,814.014 381.275,788.569 C380.953,779.813 382.138,772.25 386.4,764.778 C389.458,759.417 389.357,753.208 389.534,747.237 C390.219,724.28 391.094,701.334 392.47,678.407 C392.809,672.75 392.179,667.055 392.829,661.426 C393.144,658.693 392.758,655.101 397.014,654.602" fill="#AAD874"/>
      <path d="M795.134,453.072 C798.053,439.927 798.092,426.831 794.509,413.788 C793.778,411.127 793.031,408.92 789.423,408.803 C786.243,408.7 784.985,406.011 783.91,403.158 C782.664,399.852 783.373,395.767 780.116,393.245 C773.914,372.136 766.198,351.618 756.214,331.982 C741.874,303.78 724.187,278.015 702.149,255.155 C682.111,234.369 659.691,216.926 634.271,203.292 C633.242,202.74 632.175,202.284 631.128,201.782 C625.27,198.501 619.66,194.635 612.679,193.971 C603.634,188.031 593.274,185.294 583.145,182.2 C560.67,175.334 537.677,171.052 514.199,169.349 C499.457,168.28 484.725,167.279 469.934,167.473 C464.658,167.671 459.374,167.335 454.108,167.847 C430.411,167.575 406.949,170.071 383.595,173.825 C376.853,174.909 370.136,176.127 363.498,177.754 C362.074,178.103 360.618,178.74 359.161,177.811 C356.983,176.108 354.948,177.902 353.036,178.342 C341.054,181.102 329.389,184.981 317.793,189.045 C315.478,189.856 313.301,191.061 311.061,192.085 C305.915,195.211 300.25,197.232 294.803,199.719 C270.216,210.941 247.833,225.527 227.804,243.693 C225.581,245.709 223.553,247.923 221.677,250.27 C216.401,255.454 211.453,260.917 207.287,267.059 C206.506,268.212 206.259,269.948 204.389,270.083 C201.6,271.635 200.627,274.548 199.139,277.078 C196.438,281.674 191.894,284.376 185.317,280.058 C183.672,277.612 183.075,274.951 183.416,272.003 C191.114,205.505 215.697,146.393 261.155,96.76 C299.695,54.679 347.891,28.655 402.624,14.095 C433.464,5.89 464.919,2.18 496.775,0.831 C579.483,-2.672 654.463,22.151 725.089,62.763 C766.277,86.447 804.056,114.658 836.164,149.984 C844.351,158.992 851.805,168.578 858.041,179.065 C862.539,186.627 860.518,191.791 852.1,193.982 C833.281,198.878 814.203,201.107 794.188,199.141 C797.676,208.206 801.102,216.923 803.668,225.935 C814.064,262.437 816.362,299.574 812.387,337.188 C811.405,346.477 811.296,346.34 819.826,350.37 C853.717,366.381 880.661,389.5 895.639,424.801 C903.95,444.39 905.964,464.947 905.057,485.942 C904.857,490.565 902.189,493.351 897.647,493.979 C856.534,499.661 821.308,490.314 796.597,454.238 C796.26,453.746 795.628,453.456 795.134,453.072" fill="#6B421E"/>
      <path d="M590.856,922.963 C591.041,911.649 591.215,900.334 591.414,889.02 C592.023,854.422 592.537,819.822 593.348,785.229 C593.497,778.843 592.548,773.035 589.003,767.732 C585.915,763.111 585.263,758.034 585.17,752.549 C584.638,721.28 583.799,690.017 583.193,658.749 C583.135,655.783 582.324,654.339 579.261,654.634 C584.618,653.111 590.004,651.684 595.316,650.025 C597.861,649.229 599.56,649.121 599.134,652.526 C598.896,654.423 600.434,655.469 601.136,656.915 C601.834,678.023 602.656,699.123 602.893,720.25 C603.013,730.879 603.752,741.529 603.752,752.183 C603.752,756.377 605.675,759.93 607.644,763.388 C610.706,768.765 611.761,774.417 611.793,780.601 C611.951,810.578 610.274,840.523 610.513,870.507 C610.581,879.112 609.655,887.78 609.677,896.438 C609.681,898.318 609.219,900.062 608.242,901.668 C608.417,908.142 607.482,914.624 608.379,921.092 C608.136,921.697 607.753,922.284 607.672,922.909 C607.034,927.847 604.387,930.834 599.309,930.896 C594.142,930.959 591.678,927.737 590.856,922.963" fill="#6B421E"/>
      <path d="M397.014,654.602 C393.226,656.147 394.5,659.637 394.367,662.303 C393.714,675.434 393.412,688.582 392.855,701.719 C392.052,720.661 391.089,739.597 390.309,758.541 C390.148,762.448 388.119,765.511 386.305,768.622 C383.282,773.808 382.006,778.958 382.634,785.179 C383.567,794.425 383.053,803.811 383.298,813.134 C384.261,849.732 385.28,886.328 386.278,922.924 C384.837,928.759 381.594,931.495 376.792,930.927 C372.278,930.394 369.471,926.836 369.334,921.286 C368.54,888.921 367.781,856.556 366.99,824.191 C366.739,813.906 366.442,803.622 366.112,793.339 C366.078,792.254 366.42,790.967 365.226,790.165 C366.975,785.875 366.25,781.361 366.039,776.998 C365.794,771.926 367.419,767.706 370.015,763.595 C370.872,762.239 372.861,761.019 371.184,758.967 C373.761,740.379 373.17,721.606 374.253,702.931 C374.962,690.69 375.754,678.407 375.689,666.102 C375.659,660.369 375.626,654.49 378.061,649.033 C384.226,651.41 390.62,653.006 397.014,654.602" fill="#6B421E"/>
      <path d="M63.728,449.192 C62.195,449.311 60.27,448.46 58.591,446.962 C47.813,437.345 36.995,427.772 26.285,418.079 C22.463,414.62 22.099,409.632 25.056,406.049 C28.166,402.282 33.412,401.726 37.45,405.258 C48.447,414.876 59.318,424.642 70.128,434.471 C72.915,437.005 73.84,440.309 72.251,443.993 C70.784,447.395 68.206,449.127 63.728,449.192" fill="#EF6F63"/>
      <path d="M41.113,486.165 C30.352,485.278 19.578,484.532 8.837,483.451 C2.334,482.797 -0.533,479.347 0.081,473.766 C0.612,468.945 4.273,466.291 10.285,466.736 C22.71,467.655 35.133,468.632 47.539,469.775 C53.466,470.321 56.719,474.102 56.139,479.153 C55.57,484.098 51.324,487.044 45.591,486.476 C44.102,486.329 42.612,486.196 41.122,486.056 C41.119,486.092 41.116,486.128 41.113,486.165" fill="#EF6F63"/>
    </g>
    <path d="M110.548,414.534 C110.612,420.834 107.97,424.23 103.865,424.968 C99.451,425.76 95.302,423.561 94.229,419.095 C91.128,406.192 88.244,393.233 85.495,380.25 C84.603,376.041 87.351,372.064 91.238,370.951 C95.725,369.667 100.418,371.28 101.511,375.572 C104.946,389.062 107.841,402.691 110.548,414.534" fill="#EF6F63"/>
    <path d="M359.161,177.811 C368.729,173.75 379.04,172.933 389.111,171.304 C407.93,168.26 426.939,166.793 445.991,166.132 C448.656,166.04 451.627,164.959 454.079,167.145 C455.831,168.772 455.712,171.082 456.16,173.14 C463.823,208.382 476.095,241.804 495.862,272.151 C506.836,289 519.903,303.993 536.985,315.071 C539.646,316.797 542.395,318.343 545.279,319.643 C550.695,322.085 552.589,321.581 556.31,316.742 C557.122,315.686 557.78,314.499 559.237,314.186 C567.253,314.246 575.067,316.052 582.994,316.886 C611.688,319.904 640.317,321.336 668.819,315.281 C669.802,315.172 670.805,315.256 671.668,315.716 C675.618,317.822 679.152,317.259 682.4,314.253 C683.133,313.574 684.085,313.294 685.104,313.28 C697.132,314.955 709.189,316.248 721.331,316.637 C723.204,316.697 724.999,317.037 726.012,318.918 C734.139,346.44 740.574,374.263 741.025,403.151 C741.228,416.149 740.489,429.096 738.948,442.001 C736.341,442.172 735.777,439.915 734.746,438.335 C730.914,432.468 726.786,426.882 721.377,422.32 C702.7,406.569 677.326,407.18 658.211,421.458 C641.822,433.7 632.679,450.389 630.727,470.498 C629.031,487.958 639.646,508.958 660.043,518.1 C669.543,522.358 679.571,525.067 689.928,525.435 C698.449,525.738 706.78,523.839 714.362,519.476 C716.943,517.99 717.019,518.122 719.122,518.935 C704.72,553.961 682.206,582.633 651.455,604.715 C622.413,625.571 589.627,637.523 554.707,643.63 C501.596,652.917 448.659,652.026 396.429,637.859 C339.564,622.435 295.209,590.312 266.632,537.951 C262.977,531.254 259.434,524.475 256.927,517.227 C257.918,514.085 259.797,516.193 261.029,516.748 C270.345,520.947 279.93,524.012 290.173,525.024 C303.431,526.334 315.261,523.163 325.333,514.326 C331.864,508.595 337.678,502.177 342.123,494.655 C348.988,483.041 350.872,470.772 346.855,457.719 C343.543,446.958 338.88,437.037 331.44,428.354 C315.849,410.158 289.964,405.365 269.019,417.115 C258.753,422.874 250.732,430.863 244.654,440.886 C243.449,442.873 242.421,445.003 240.7,446.617 C239.777,447.483 238.901,447.237 238.352,446.06 C229.597,370.916 247.08,302.256 290.109,240.25 C307.09,215.78 329.198,196.403 354.579,180.805 C356.133,179.85 357.635,178.811 359.161,177.811" fill="#FEF8EA"/>
    <path d="M378.061,649.033 C376.871,677.771 375.677,706.509 374.497,735.248 C374.299,740.069 373.976,744.895 374.053,749.713 C374.109,753.198 373.34,756.253 371.184,758.967 C359.613,772.477 348.152,786.088 334.798,797.934 C323.805,807.686 312.215,816.5 298.472,822.169 C285.812,827.39 274.265,825.896 263.353,817.539 C248.437,806.117 237.342,791.414 227.08,775.994 C214.628,757.284 204.243,737.413 194.501,717.188 C193.022,714.118 192.511,712.677 196.957,711.693 C216.47,707.376 233.026,697.471 247.052,683.369 C249.536,680.871 250.656,680.765 252.919,683.621 C263.459,696.928 274.231,710.05 284.955,723.211 C291.319,731.021 295.148,731.186 301.792,723.803 C323.162,700.058 344.62,676.39 365.695,652.385 C369.532,648.015 372.821,646.086 378.061,649.033" fill="#FEFEFE"/>
    <path d="M176.194,698.136 C143.837,698.148 115.906,677.292 109.931,647.457 C104.708,621.379 113.85,599.668 134.165,583.276 C146.02,573.711 144.644,571.678 137.798,561.233 C126.535,544.051 117.835,525.541 113.972,505.15 C111.865,494.024 114.644,487.604 122.379,483.938 C131.22,479.748 141.861,481.778 148.383,489.142 C165.674,508.668 178.905,530.674 187.485,555.301 C189.578,561.31 192.776,564.033 199.01,565.042 C226.99,569.569 248.884,590.348 253.534,617.554 C257.215,639.097 250.055,657.623 234.748,672.957 C218.753,688.979 197.135,698.129 176.194,698.136" fill="#FEF8EA"/>
    <path d="M730.249,645.027 C713.363,644.071 698.767,637.446 685.671,627.07 C681.21,623.535 677.536,619.242 673.698,615.085 C670.845,611.994 670.925,610.015 674.376,607.157 C700.25,585.729 719.131,559.027 732.767,528.488 C737.926,516.933 742.229,505.048 745.482,492.816 C746.239,489.968 747.323,488.77 750.487,488.779 C755.803,488.794 761.061,487.794 766.17,486.205 C772.355,489.241 775.806,494.973 778.882,500.529 C799.274,537.356 800.9,574.73 779.521,611.58 C770.644,626.883 756.774,637.458 739.899,643.591 C736.785,644.723 733.608,645.506 730.249,645.027" fill="#D7AA61"/>
    <path d="M238.352,446.06 C240.752,447.244 240.654,444.895 241.259,443.856 C247.531,433.098 255.296,423.906 266.148,417.303 C286.484,404.929 312.33,406.836 328.975,423.671 C342.049,436.893 349.9,453.114 350.113,472.201 C350.263,485.611 343.85,496.472 335.387,506.132 C327.9,514.678 319.605,522.236 307.966,525.079 C291.217,529.171 275.881,524.629 260.784,518.068 C259.553,517.533 258.607,515.703 256.928,517.228 C247.037,494.47 241.437,470.594 238.352,446.06" fill="#FFD5BA"/>
    <path d="M719.122,518.935 C713.325,520.585 708.407,524.243 702.341,525.511 C679.788,530.224 644.172,519.206 633.598,493.285 C628.203,480.059 628.15,467.185 633.008,454.11 C641.112,432.303 655.103,416.312 678.541,410.833 C698.171,406.243 714.617,412.249 728.123,427.237 C732.273,431.843 734.87,437.433 738.948,442 C735.942,468.574 730.095,494.415 719.122,518.935" fill="#FFD5BA"/>
    <path d="M608.242,901.668 C608.695,873.582 609.152,845.496 609.599,817.41 C609.826,803.114 610.047,788.817 610.243,774.52 C610.299,770.456 607.831,767.323 605.981,764.052 C603.397,759.483 602.083,754.888 601.999,749.49 C601.555,721.24 600.637,692.997 600.061,664.749 C600.009,662.185 598.65,659.215 601.136,656.915 C613.814,676.197 626.007,695.762 635.667,716.783 C646.679,740.746 655.268,765.453 657.649,791.911 C661.77,837.712 645.667,874.516 608.242,901.668" fill="#FEFEFE"/>
    <path d="M726.012,318.918 C719.852,316.419 713.318,318.038 706.977,317.254 C699.285,316.303 691.503,316.112 683.999,313.896 C682.825,306.66 677.815,301.69 673.654,296.178 C653.318,269.237 639.19,239.352 631.429,206.483 C631.016,204.735 630.253,202.966 631.216,201.147 C635.76,201.464 639.123,204.449 642.767,206.578 C688.125,233.088 722.719,270.154 748.777,315.457 C761.677,337.886 771.894,361.511 779.266,386.331 C779.92,388.534 781.702,390.72 780.116,393.245 C774.092,389.145 767.338,387.674 760.194,388.088 C757.134,388.266 756.333,387.242 756.03,384.252 C753.791,362.202 749.15,340.616 742.999,319.34 C742.419,317.334 741.665,316.277 739.162,316.715 C736.237,317.228 733.187,317.001 730.194,317.158 C728.612,317.24 726.727,316.727 726.012,318.918" fill="#D7AA61"/>
    <path d="M221.122,249.992 C220.933,248.409 222.126,247.647 223.059,246.731 C247.829,222.406 277.033,205.079 309.095,192.278 C309.682,192.043 310.403,192.142 311.061,192.085 C307.856,197.017 303.039,200.404 299.029,204.563 C265.071,239.782 243.732,281.889 231.246,328.782 C228.224,340.134 225.941,351.682 223.317,363.14 C220.711,362.074 220.507,359.572 220.053,357.356 C217.25,343.669 215.329,329.911 214.462,315.906 C213.219,295.819 215.277,276.12 218.719,256.445 C219.123,254.137 219.528,251.849 221.122,249.992" fill="#D7AA61"/>
    <path d="M730.249,645.027 C762.292,637.886 788.267,610.254 792.197,570.557 C794.713,545.134 790.671,521.187 776.671,499.465 C773.631,494.748 769.695,490.609 766.171,486.205 C769.908,483.991 772.97,484.933 776.48,487.373 C800.314,503.941 812.634,527.108 816.106,555.45 C818.174,572.33 816.097,588.66 808.799,604.109 C796.429,630.297 764.907,648.908 730.879,645.711 C730.65,645.69 730.458,645.264 730.249,645.027" fill="#FEFEFE"/>
    <path d="M221.122,249.992 C219.639,260.514 217.726,270.997 216.758,281.566 C214.235,309.102 215.822,336.375 223.317,363.139 C222.407,370.551 221.447,377.957 220.619,385.377 C220.396,387.374 219.76,388.212 217.567,388.072 C212.365,387.738 207.274,388.545 202.509,390.712 C199.509,392.076 199.598,389.825 199.233,388.159 C196.238,374.507 194.361,360.722 193.989,346.723 C193.318,321.44 196.513,296.706 204.025,272.541 C204.268,271.759 204.273,270.904 204.389,270.083 C208.594,262.243 213.933,255.347 221.122,249.992" fill="#FEFEFE"/>
    <path d="M557.038,669.151 C556.631,678.156 556.13,686.954 553.047,695.33 C548.16,708.604 538.965,713.768 523.387,711.862 C516.61,711.033 510.157,708.851 503.778,706.44 C501.715,705.661 501.208,705.03 502.604,703.031 C511.356,690.504 520.027,677.919 528.649,665.302 C529.845,663.552 531.393,663.221 533.287,662.995 C539.386,662.269 545.521,661.654 551.534,660.456 C555.248,659.716 557.258,659.933 556.803,664.375 C556.636,666.006 556.953,667.686 557.038,669.151" fill="#FEFEFE"/>
    <path d="M448.515,712.173 C435.76,712.232 428.429,707.115 424.081,695.056 C420.343,684.691 420.158,673.906 420.321,663.077 C420.361,660.407 421.493,659.874 424.077,660.313 C430.616,661.425 437.202,662.295 443.794,663.04 C446.019,663.291 447.371,664.205 448.551,666.043 C456.533,678.471 464.593,690.85 472.66,703.224 C473.773,704.93 474.614,706.094 471.726,707.097 C464.172,709.722 456.603,712.086 448.515,712.173" fill="#FEFEFE"/>
    <path d="M488.494,742.46 C475.008,742.46 461.521,742.342 448.038,742.539 C444.513,742.591 443.54,741.545 443.578,738.059 C443.683,728.555 443.525,728.623 452.707,728.027 C462.78,727.373 472.248,724.256 481.499,720.461 C486.335,718.477 490.849,718.371 495.817,720.464 C506.731,725.061 517.997,728.598 530.068,728.094 C533.045,727.97 533.616,729.178 533.682,731.864 C533.94,742.462 534.028,742.46 523.456,742.46 C511.802,742.46 500.148,742.46 488.494,742.46" fill="#FEFDFD"/>
    <path d="M781.196,433.436 C780.937,441.308 780.418,447.581 778.309,453.612 C774.406,464.774 766.492,470.784 754.82,472.305 C751.436,472.747 750.369,472.215 751.124,468.607 C754.461,452.647 755.973,436.456 756.789,420.194 C757.005,415.883 757.143,411.56 757.057,407.247 C757.009,404.846 757.933,404.165 760.203,403.99 C768.497,403.35 774.929,407.331 778.039,415.419 C778.868,417.576 779.611,419.826 779.951,422.099 C780.59,426.36 780.905,430.668 781.196,433.436" fill="#FEF8EA"/>
    <path d="M216.181,404.013 C219.036,403.444 220.136,404.721 220.071,408.091 C219.671,428.627 221.812,448.95 225.789,469.08 C226.322,471.775 225.946,472.651 222.962,472.263 C211.229,470.737 203.175,464.548 199.642,453.313 C195.862,441.296 195.895,429.013 199.442,416.918 C201.925,408.449 207.739,404.139 216.181,404.013" fill="#FEF8EA"/>
    <path d="M509.369,664.94 C501.835,675.859 494.832,686.009 487.53,696.591 C480.68,686.035 474.114,675.917 467.049,665.029 C481.32,665.55 494.889,665.736 509.369,664.94" fill="#FEF7E9"/>
    <path d="M408.303,792.271 C402.426,792.272 398.158,788.131 398.158,782.428 C398.158,776.917 402.654,772.328 408.203,772.176 C413.57,772.029 418.221,776.718 418.268,782.324 C418.317,788.105 414.145,792.27 408.303,792.271" fill="#FEFEFE"/>
    <path d="M564.117,792.271 C558.259,792.21 554.056,787.994 554.14,782.262 C554.221,776.767 558.846,772.195 564.349,772.169 C569.764,772.144 574.279,776.851 574.25,782.49 C574.221,788.255 569.997,792.332 564.117,792.271" fill="#FEFEFE"/>
    <path d="M790.523,368.47 C779.597,337.439 765.217,308.448 746.463,281.723 C699.07,214.187 634.853,172.525 553.802,156.976 C512.99,149.147 471.776,148.738 430.466,150.947 C390.053,153.108 350.576,160.225 312.399,173.912 C274.309,187.567 240.006,207.426 210.965,235.919 C209.161,237.689 208.151,240.524 204.631,241.144 C207.654,227.777 211.339,214.993 215.926,202.459 C230.921,161.481 253.406,125.361 285.247,95.271 C317.491,64.802 355.475,44.55 397.808,32.123 C425.199,24.082 453.25,20.01 481.694,17.692 C547.671,12.315 610.1,25.464 669.986,52.5 C719.515,74.86 764.761,103.812 804.627,140.915 C816.343,151.819 827.323,163.397 836.94,176.233 C839.063,179.067 840.038,180.57 835.171,181.384 C817.95,184.265 800.798,185.046 783.65,181.133 C779.698,180.231 775.961,179.958 773.227,183.588 C770.376,187.373 771.735,190.881 773.802,194.675 C785.243,215.676 791.479,238.382 795.094,261.869 C800.469,296.792 798.546,331.522 792.006,366.104 C791.853,366.916 791.802,367.772 790.523,368.47" fill="#AAD874"/>
    <path d="M670.204,315.931 C660.05,319.412 649.414,320.015 638.873,320.627 C620.464,321.694 602.091,320.432 583.787,318.342 C575.236,317.366 566.711,316.158 558.175,315.055 C555.636,310.303 551.361,307.742 546.825,305.086 C532.651,296.787 521.591,285.028 512.153,271.764 C490.463,241.282 477.492,207.075 469.516,170.78 C469.154,169.13 468.836,167.489 470.081,166.031 C517.966,165.839 564.839,171.489 609.491,190.079 C611.583,190.95 613.295,191.949 614.043,194.174 C616.294,197.452 616.294,201.405 617.109,205.065 C625.681,243.532 641.716,278.414 666.598,309.114 C668.226,311.123 670.486,312.878 670.204,315.931" fill="#D7AA61"/>
    <path d="M889.095,467.588 C889.398,478.711 889.417,479.305 881.698,479.555 C851.425,480.537 820.802,470.12 804.2,434.888 C800.859,427.797 798.473,420.36 796.552,412.761 C795.941,410.344 796.51,408.6 797.696,406.33 C801.728,398.614 802.929,389.926 805.026,381.564 C806.277,376.573 807.236,371.5 808.131,366.429 C808.628,363.611 809.736,363.377 812.171,364.523 C844.683,379.822 870.359,401.821 882.938,436.637 C886.925,447.672 888.745,459.148 889.095,467.588" fill="#AAD874"/>
    <path d="M470.081,166.031 C473.521,185.953 479.513,205.141 487.281,223.747 C497.68,248.654 510.74,271.924 530.426,290.91 C536.821,297.077 543.727,302.537 551.776,306.356 C555.591,308.165 557.964,310.739 558.175,315.055 C555.644,322.529 551.524,324.284 544.451,320.69 C524.782,310.695 510.165,295.175 497.901,277.295 C475.394,244.477 461.959,207.926 454.153,169.13 C454.024,168.49 454.099,167.808 454.079,167.145 C459.276,164.8 464.765,166.654 470.081,166.031" fill="#6E4100"/>
    <path d="M670.204,315.931 C657.03,299.541 645.113,282.343 635.937,263.338 C625.968,242.693 618.933,221.087 614.393,198.646 C614.098,197.191 614.152,195.666 614.044,194.173 C614.163,193.547 614.385,192.501 614.978,192.74 C620.652,195.023 626.69,196.641 631.216,201.147 C636.226,221.912 642.994,242.015 652.905,261.032 C660.713,276.014 669.83,290.094 680.759,302.945 C683.628,306.319 684.799,309.687 683.999,313.896 C679.576,319.369 676.257,319.858 670.204,315.931" fill="#6E4100"/>
    <path d="M488.172,550.056 C460.234,549.483 435.927,541.032 418.546,517.693 C414.955,512.87 412.039,507.652 410.06,501.951 C408.858,498.489 409.609,495.482 413.096,494.056 C416.671,492.594 419.599,493.758 421.222,497.512 C433.238,525.311 456.017,536.597 484.668,537.898 C515.631,539.305 538.971,526.265 554.083,499.004 C556.095,495.374 558.846,493.757 562.667,495.778 C566.9,498.016 566.474,501.612 564.513,505.18 C552.247,527.508 533.99,542.12 509.021,547.958 C502.19,549.555 495.243,550.294 488.172,550.056" fill="#6E4100"/>
    <path d="M625.157,402.784 C624.817,411.821 623.246,420.377 615.154,426.066 C608.018,431.084 600.118,430.389 593.857,424.351 C583.199,414.073 581.568,397.355 590.376,383.085 C592.697,379.324 593.338,376.166 591.871,372.097 C590.812,369.158 590.369,365.969 589.888,362.856 C589.332,359.256 590.661,356.568 594.462,355.816 C598.165,355.084 600.528,356.784 601.544,360.387 C601.724,361.025 601.927,361.666 602.013,362.32 C602.686,367.48 603.729,371.053 610.327,372.854 C618.852,375.182 621.693,383.873 623.816,391.9 C624.746,395.414 625.375,399.059 625.157,402.784" fill="#6E4100"/>
    <path d="M390.312,404.598 C390.056,411.565 388.566,419.658 381.347,425.336 C373.77,431.296 365.27,430.661 358.494,423.826 C348.427,413.671 346.994,397.26 355.488,383.249 C357.743,379.53 358.709,376.422 357.124,372.284 C356.009,369.372 355.619,366.156 355.122,363.041 C354.558,359.507 355.622,356.664 359.477,355.838 C363.443,354.988 365.809,356.986 366.896,360.686 C367.175,361.635 367.228,362.65 367.388,363.634 C368.113,368.083 368.794,371.801 374.954,372.422 C379.605,372.891 382.656,377.365 384.994,381.507 C388.756,388.171 390.334,395.414 390.312,404.598" fill="#6E4100"/>
    <path d="M369.582,233.522 C377.152,233.704 382.774,236.752 386.837,242.576 C388.756,245.327 389.229,248.393 386.097,250.424 C383.479,252.122 380.919,251.431 378.738,248.761 C372.629,241.281 362.914,242.114 357.873,250.624 C355.903,253.95 353.425,255.377 350.177,253.472 C346.997,251.607 347.465,248.461 349.076,245.587 C353.654,237.422 361.032,234.061 369.582,233.522" fill="#6E4100"/>
    <path d="M495.652,422.038 C495.53,424.237 494.513,426.114 492.092,427.191 C489.644,428.28 487.265,427.859 485.721,426.021 C483.397,423.254 481.401,420.158 479.639,416.993 C478.393,414.755 479.201,412.447 480.957,410.631 C482.765,408.761 485.036,408.492 487.383,409.299 C490.12,410.24 495.671,418.719 495.652,422.038" fill="#6F4300"/>
    <path d="M175.201,658.263 C174.337,677.758 160.557,686.95 140.711,678.966 C136.912,677.438 135.609,673.813 136.808,669.768 C138.009,665.713 141.029,663.903 145.128,664.073 C146.927,664.148 148.704,664.767 150.491,665.134 C157.238,666.521 160.91,662.357 158.58,655.767 C156.792,650.708 153.286,646.993 148.662,644.328 C145.055,642.248 142.695,639.438 143.665,635.003 C144.941,629.168 150.99,626.905 156.739,630.235 C160.919,632.656 165.044,635.102 169.742,636.406 C176.204,638.2 178.474,636.719 178.607,629.975 C178.881,616.19 172.366,605.477 162.8,596.255 C161.485,594.987 159.954,593.929 158.719,592.593 C155.597,589.215 155.605,584.45 158.609,581.303 C161.375,578.404 166.037,578.04 169.474,580.771 C176.572,586.411 182.509,593.128 186.996,601.023 C188.256,603.24 188.858,604.387 191.468,602.166 C203.039,592.319 216.847,589.594 231.561,590.561 C237.938,590.98 240.843,594.33 240.298,599.623 C239.797,604.49 236.072,606.982 230.065,606.478 C222.278,605.826 214.854,607.263 207.772,610.482 C206.271,611.165 204.823,612.039 203.499,613.025 C197.046,617.826 197.163,621.358 204.063,625.296 C211.245,629.396 219.112,631.4 227.3,632.184 C231.684,632.604 235.042,634.371 236.03,638.969 C237.136,644.115 232.862,648.653 227.18,648.276 C216.948,647.598 207.154,645.04 198.052,640.317 C194.997,638.732 193.457,637.926 191.948,642.157 C190.005,647.605 185.571,651.255 179.87,652.343 C175.823,653.115 173.939,654.506 175.201,658.263" fill="#6E4100"/>
  </g>
</svg>
