<?xml version="1.0" encoding="UTF-8"?>
<!DOCTYPE svg PUBLIC "-//W3C//DTD SVG 1.1//EN" "http://www.w3.org/Graphics/SVG/1.1/DTD/svg11.dtd">
<svg version="1.1" xmlns="http://www.w3.org/2000/svg" xmlns:xlink="http://www.w3.org/1999/xlink" x="0" y="0" width="682" height="1219" viewBox="0, 0, 682, 1219">
  <defs>
    <clipPath id="Clip_1">
      <path d="M0.06,0.64 L681.493,0.64 L681.493,1218.94 L0.06,1218.94 z"/>
    </clipPath>
  </defs>
  <g id="Layer_1">
    <g clip-path="url(#Clip_1)">
      <path d="M276.963,884.367 C290.134,883.38 290.184,883.33 292.712,896.234 C303.863,953.148 314.704,1010.12 323.562,1067.44 C326.838,1088.65 329.554,1109.92 331.747,1131.27 C332.153,1135.21 331.327,1137.07 326.988,1136.74 C324.538,1136.56 322.021,1137.07 319.548,1137.38 C313.793,1138.1 311.567,1142.01 314.041,1147.33 C316.001,1151.54 318.131,1155.68 320.39,1159.74 C321.636,1161.99 321.789,1163.26 319.138,1164.72 C314.647,1167.21 310.469,1170.26 305.702,1173.37 C305.123,1163.56 304.805,1154.29 303.945,1145.06 C303.409,1139.31 302.599,1133.33 295.085,1132.02 C292.682,1131.6 293.61,1129.24 293.502,1127.86 C292.199,1111.11 291.133,1094.35 289.864,1077.6 C287.388,1044.93 284.925,1012.26 282.263,979.599 C279.75,948.771 277.022,917.959 274.271,887.151 C274.05,884.673 274.993,884.514 276.963,884.367 z M367.785,870.432 C371.425,868.986 375.511,868.211 377.359,864.014 C377.399,863.922 379.119,864.418 379.943,864.852 C382.436,866.164 385.168,865.468 388.336,865.942 C383.974,880.082 376.712,892.368 370.034,905.238 C369.005,894.329 367.975,883.421 366.954,872.512 C366.877,871.694 366.785,870.83 367.785,870.432 z M371.748,750.632 C375.766,767.401 379.876,784.148 383.735,800.953 C384.682,805.078 385.718,808.697 391.051,809.357 C386.849,814.561 383.031,819.289 378.338,825.101 C375.734,800.649 373.24,777.225 370.746,753.8 C370.617,752.597 369.401,751.051 371.748,750.632 z M492.554,495.546 C495.414,496.766 498.097,496.094 500.429,494.042 C502.053,492.613 503.748,491.258 505.297,489.751 C511.69,483.535 516.119,475.847 520.98,468.501 C547.505,428.417 561.236,384.099 563.719,336.312 C565.522,301.592 562.822,267.019 556.522,232.888 C541.614,152.124 499.579,89.031 430.778,44.161 C395.122,20.908 355.786,6.826 313.527,2.038 C281.471,-1.594 249.704,2.099 218.542,10.262 C201.414,14.749 184.688,20.36 171.883,33.619 C170.952,34.583 169.799,34.552 168.656,34.632 C143.856,36.379 121.945,45.765 101.983,60.097 C77.684,77.543 58.967,100.101 42.627,124.908 C11.881,171.588 -2.097,223 0.254,278.578 C2.014,320.223 10.873,360.616 26.264,399.454 C27.263,401.975 27.606,403.67 25.545,406 C20.62,411.569 17.711,418.309 15.883,425.486 C12.021,440.646 13.064,455.873 15.465,471.088 C17.404,483.371 20.799,495.318 24.398,507.227 C14.665,509.011 13.646,510.356 15.06,519.901 C17.204,534.383 19.63,548.826 21.57,563.335 C22.736,572.055 25.543,580.7 24.709,589.529 C22.926,608.415 20.529,627.242 18.397,646.095 C15.591,670.902 12.744,695.704 10.034,720.522 C9.283,727.397 11.385,729.476 18.383,729.764 C28.025,730.162 37.662,730.714 47.306,731.01 C49.687,731.084 51.188,731.877 52.791,733.655 C65.178,747.382 80.625,755.624 98.897,758.267 C114.242,760.486 128.943,751.996 134.968,737.494 C136.183,734.57 138.075,735.016 140.123,735.102 C149.597,735.504 159.064,736.116 168.541,736.356 C171.896,736.441 172.451,737.448 172.24,740.744 C170.423,769.145 169.231,797.579 168.432,826.028 C168.354,828.813 167.737,831.94 170.162,834.038 C171.848,835.496 171.812,837.104 171.73,838.931 C171.302,848.403 170.937,857.877 170.444,867.345 C170.204,871.966 171.636,875.093 176.676,875.867 C181.606,876.623 186.472,877.887 191.421,878.403 C194.548,878.729 195.442,880.033 196.032,882.957 C204.756,926.146 213.013,969.424 220.578,1012.83 C227.406,1052 233.792,1091.25 237.705,1130.85 C238.114,1134.99 237.577,1137.05 232.786,1136.65 C229.682,1136.39 226.484,1137 223.351,1137.4 C217.88,1138.09 215.716,1141.96 217.944,1147.07 C219.005,1149.5 220.305,1151.83 221.501,1154.21 C222.92,1157.03 225.711,1159.99 225.415,1162.62 C225.059,1165.77 220.466,1166.26 217.79,1168.01 C208.921,1173.81 200.515,1180.03 196.401,1190.33 C191.08,1203.66 196.508,1214.68 210.528,1217.61 C220.834,1219.77 231.452,1219.02 241.867,1217.98 C257.771,1216.4 273.362,1212.9 288.831,1208.9 C290.312,1208.51 291.848,1207.63 293.263,1209.58 C298.482,1216.74 306.083,1218.2 314.391,1218.6 C339.357,1219.8 363.253,1213.97 387.285,1208.48 C395.542,1206.59 398.826,1201.89 399.936,1194.2 C402.431,1176.91 401.216,1159.65 399.782,1142.41 C399.277,1136.33 396.093,1133.51 389.399,1132.36 C387.68,1132.06 387.761,1131.1 387.677,1129.94 C386.862,1118.71 386.041,1107.49 385.208,1096.08 C386.179,1096.27 386.675,1096.31 387.143,1096.46 C426.823,1108.52 462.288,1100.08 493.047,1073.1 C510.716,1057.6 519.188,1037.36 517.292,1013.41 C516.018,997.31 509.449,983.318 500.15,970.428 C489.87,956.179 477.367,943.921 464.923,931.646 C461.994,928.757 462.475,927.547 465.287,925.063 C485.749,906.986 506.052,888.729 526.38,870.5 C531.097,866.271 531.389,863.765 527.862,858.48 C523.153,851.421 518.418,844.378 513.618,837.38 C509.32,831.113 505.744,830.81 500.356,836.252 C491.448,845.247 482.615,854.319 473.68,863.287 C472.791,864.179 472.204,866.075 470.292,865.296 C473.957,855.457 477.66,845.731 481.191,835.943 C482.962,831.032 481.356,828.079 476.207,826.503 C471.126,824.948 466.008,823.501 460.862,822.18 C458.695,821.624 457.406,820.692 457.12,818.318 C456.215,810.802 453.606,803.806 450.323,797.034 C449.824,796.005 449.187,795.028 449.378,793.758 C450.643,785.364 448.583,777.188 447.368,769.023 C441.457,729.326 432.071,690.366 420.674,651.944 C405.353,600.295 391.271,548.118 364.334,500.618 C365.515,500.323 367.115,499.924 368.715,499.525 C373.755,498.412 378.601,496.75 383.331,494.666 C414.41,480.98 440.168,460.862 458.979,432.303 C469.404,416.476 477.558,399.566 482.774,381.335 C484.171,376.452 486.242,373.171 491.834,373.454 C492.643,373.495 493.474,373.194 494.294,373.045 C508.31,370.486 517.666,362.37 522.547,349.092 C526.156,339.275 525.807,329.032 524.634,318.944 C522.779,303.004 511.672,290.481 496.507,291.277 C494.876,291.362 493.542,290.7 493.287,288.835 C492.972,286.523 494.688,286.269 496.311,285.673 C501.047,283.935 502.987,280.376 501.803,275.963 C500.826,272.325 497.282,270.186 492.73,270.726 C490.079,271.04 487.458,271.462 484.774,271.245 C466.419,269.763 448.612,265.755 431.061,260.228 C398.361,249.93 367.289,235.864 336.87,220.234 C308.761,205.791 284.974,186.008 264.829,161.746 C248.572,142.166 234.87,120.949 223.931,97.956 C222.787,95.552 221.636,93.141 220.237,90.867 C218.427,87.927 215.601,87.279 212.431,87.525 C209.17,87.779 207.036,89.708 206.558,92.751 C205.994,96.337 203.69,97.618 200.75,98.776 C191.609,102.378 182.655,106.339 173.996,111.075 C138.236,130.632 111.623,158.968 92.86,194.894 C77.862,223.61 69.771,254.429 65.708,286.395 C65.255,289.964 63.916,291.193 60.434,291.418 C48.215,292.208 40.32,299.025 36.605,310.314 C32.379,323.155 32.367,336.313 36.655,349.145 C41.092,362.421 50.506,370.409 64.399,372.877 C66.367,373.227 68.331,373.6 70.304,373.922 C71.906,374.183 73.133,374.951 73.653,376.544 C75.692,382.787 77.883,388.985 79.895,395.3 C78.622,395.537 78.075,395.143 77.518,394.808 C66.491,388.176 54.869,387.459 42.958,391.773 C39.172,393.143 38.377,391.239 37.321,388.457 C29.669,368.297 24.262,347.529 20.301,326.362 C20.032,324.33 19.198,322.399 19.205,320.318 C15.334,296.802 12.96,273.268 15.041,249.324 C16.767,229.472 19.927,209.978 26.375,191.165 C41.532,146.943 66.187,108.864 101.838,78.411 C119.46,63.359 139.673,53.035 162.951,49.594 C165.236,48.822 167.594,49.033 169.939,49.061 C172.942,49.13 175.918,48.661 178.92,48.618 C183.024,48.558 186.071,46.743 186.892,42.497 C187.489,39.406 189.302,37.525 191.838,35.998 C195.129,34.016 198.517,32.253 202.08,30.813 C228.711,20.046 256.739,16.448 285.113,15.111 C307.621,14.051 329.553,18.1 351.153,24.165 C394.35,36.293 432.052,58.053 464.629,88.827 C478.987,102.405 491.313,117.676 502.396,133.981 C503.372,135.719 504.366,137.456 505.442,139.141 C522.875,166.426 534.449,196.082 540.893,227.735 C544.983,247.825 547.438,268.149 548.673,288.631 C549.948,309.77 550.521,330.934 548.104,351.975 C544.062,387.17 533.385,420.357 515.063,450.77 C508.055,462.403 501.463,474.532 490.743,483.515 C489.297,484.726 487.543,486.176 488.792,488.59 C488.639,491.672 489.573,494.273 492.554,495.546" fill="#6E4100"/>
      <path d="M502.899,132.791 C525.195,166.259 538.911,202.965 544.963,242.695 C549.509,272.536 551.97,302.485 550.811,332.657 C549.049,378.516 536.165,420.991 511.148,459.583 C505.205,468.751 499.886,478.502 490.774,485.224 C489.81,485.935 489.438,487.45 488.792,488.591 C479.108,493.462 469.014,496.996 458.166,498.165 C450.881,498.951 443.597,499.424 436.352,497.962 C430.201,496.721 424.89,494.181 422.992,487.545 C422.214,484.824 420.762,486.301 419.624,486.781 C405.32,492.799 390.466,496.797 375.14,499.131 C372.999,499.457 370.888,499.874 368.716,499.525 C377.563,495.351 386.797,492.061 395.483,487.492 C438.629,464.797 466.098,429.27 480.878,383.363 C482.771,377.483 483.478,372.555 492.22,371.668 C510.938,369.768 522.14,356.914 523.687,338.072 C524.49,328.286 524.7,318.401 520.703,309.04 C516.13,298.331 508.239,292.493 496.367,292.523 C494.118,292.529 491.764,293.194 491.632,289.37 C491.53,286.396 491.583,284.777 495.232,284.656 C499.507,284.514 501.335,281.623 500.969,277.499 C500.602,273.371 497.725,271.535 494.064,271.868 C476.828,273.435 460.207,269.937 443.899,265.314 C399.488,252.725 357.322,234.609 317.924,210.589 C287.113,191.804 263.563,165.386 243.729,135.501 C235.053,122.429 227.556,108.714 220.928,94.519 C219.187,90.79 217.284,87.634 212.477,88.453 C208.116,89.196 207.094,92.191 207.399,96.143 C207.59,98.616 205.249,98.271 203.879,98.788 C182.385,106.896 162.399,117.643 144.629,132.333 C113.451,158.107 92.673,190.843 79.891,228.937 C73.363,248.389 68.896,268.301 66.807,288.722 C66.546,291.276 65.813,292.448 62.925,292.601 C48.135,293.384 40.252,300.09 36.732,314.594 C34.13,325.318 34.308,336.072 37.165,346.683 C41.304,362.058 52.909,371.101 70.155,372.421 C73.149,372.651 74.412,373.47 75.213,376.476 C76.795,382.41 79.022,388.173 80.982,394.006 C81.444,395.379 82.494,396.672 81.567,398.265 C79.875,398.42 78.88,397.096 77.661,396.352 C66.205,389.359 54.238,388.057 41.935,393.596 C38.278,395.243 37.79,393.362 36.814,390.841 C29.347,371.551 24.047,351.654 19.977,331.405 C19.654,329.796 19.391,328.174 19.101,326.558 C19.198,322.624 19.15,318.703 18.093,314.869 C16.924,291.126 19.874,267.748 24.5,244.539 C30.685,213.507 41.231,183.931 55.072,155.545 C64.012,137.208 75.459,120.602 89.395,105.526 C103.591,90.169 118.923,76.261 136.004,64.295 C145.005,57.99 154.545,52.526 165.005,48.888 C166.662,48.556 168.415,48.609 169.939,47.705 C172.406,47.517 174.873,47.171 177.34,47.172 C183.949,47.174 184.946,46.54 185.945,39.937 C186.322,37.442 188.182,36.748 189.777,35.765 C203.134,27.528 217.962,23.232 233.15,20.111 C259.319,14.733 285.772,11.705 312.41,14.935 C350.53,19.557 386.032,32.196 418.921,52.092 C434.061,61.251 448.018,71.977 461.148,83.797 C462.851,85.329 464.87,86.634 465.898,88.831 C469.973,94.986 467.511,101.566 466.481,107.72 C463.692,124.395 455.049,137.306 439.616,145.004 C436.527,146.544 436.941,147.638 438.598,150.163 C442.474,156.064 447.571,156.237 453.731,154.915 C469.411,151.549 483.529,144.779 496.879,136.137 C498.801,134.893 500.442,133.089 502.899,132.791" fill="#DBA76F"/>
      <path d="M582.741,524.472 C588.696,524.436 594.502,525.428 599.374,528.887 C602.793,531.314 603.554,529.912 604.603,526.853 C613.929,499.66 623.353,472.499 632.75,445.33 C633.293,443.76 633.752,442.149 634.433,440.639 C636.219,436.675 639.771,435.206 643.386,437.498 C658.397,447.015 671.493,458.623 678.265,475.474 C685.518,493.525 681.272,512.408 658.091,519.804 C652.354,521.634 646.526,522.829 640.575,523.557 C637.027,523.992 634.095,523.091 633.268,519.264 C632.483,515.631 634.809,513.88 637.941,512.723 C643.5,510.668 647.396,506.586 650.346,501.637 C653.567,496.236 652.992,491.73 648.794,487.023 C645.644,483.491 641.676,481.086 637.58,478.803 C635.048,477.392 634.358,478.217 633.502,480.714 C625.855,503.033 617.421,525.107 610.579,547.665 C607.626,557.401 603.898,564.871 593.721,567.745 C581.921,571.077 570.535,570.184 560.267,563.202 C550.855,556.802 550.078,543.844 558.183,534.729 C564.704,527.397 573.212,524.666 582.741,524.472" fill="#FF7164"/>
    </g>
    <path d="M463.911,391.636 C448.39,431.869 421.176,461.34 382.092,479.506 C347.244,495.705 310.11,500.246 272.12,499.735 C259.454,499.564 246.892,498.144 234.32,496.695 C229.856,496.18 228.428,494.307 227.774,489.998 C224.395,467.749 219.621,445.854 208.915,425.738 C205.371,419.08 201.032,412.979 195.33,407.991 C179.095,393.79 154.434,395.968 138.868,412.851 C131.614,420.719 127.381,430.208 123.944,441.073 C111.639,426.751 102.08,411.639 95.514,394.656 C97.838,393.03 99.63,394.928 101.501,395.684 C110.536,399.337 119.751,402.013 129.635,401.006 C145.26,399.413 155.041,389.471 162.65,377.012 C173.1,359.902 167.665,344.006 157.671,328.99 C141.03,303.985 108.678,305.874 90.849,327.58 C88.736,330.151 86.904,332.929 85.174,335.783 C84.19,337.406 83.541,339.554 81.051,339.63 C73.504,272.06 90.021,211.485 134.82,159.769 C155.031,136.437 181.002,120.965 209.98,110.454 C213.361,109.228 214.214,110.568 215.5,113.045 C234.674,149.961 259.47,182.365 292.114,208.493 C312.957,225.176 336.698,236.782 360.713,247.899 C392.141,262.446 424.223,275.182 458.327,282.091 C463.375,283.114 468.489,284.13 473.609,284.372 C477.311,284.546 478.458,286.004 478.68,289.335 C479.568,302.645 479.616,315.946 478.394,329.233 C477.983,333.703 477.282,338.146 476.714,342.601 C474.051,342.433 474.001,340.02 473.156,338.359 C467.265,326.781 459.815,316.923 446.676,312.762 C436.281,309.471 426.148,310.104 416.65,315.131 C398.701,324.63 389.281,339.939 388.233,360.122 C387.497,374.295 394.692,385.015 405.889,392.349 C417.578,400.005 430.792,403.25 444.994,400.006 C450.504,398.748 455.193,396.138 459.563,392.667 C460.676,391.783 461.826,389.156 463.911,391.636" fill="#FEF8EA"/>
    <path d="M340.989,596.42 C341.892,607.519 342.584,618.641 343.738,629.714 C346.515,656.351 349.478,682.97 352.424,709.589 C355.535,737.699 358.716,765.8 361.86,793.906 C362.674,801.181 363.246,808.492 364.363,815.72 C364.871,819.003 363.976,819.992 360.851,820.678 C334.756,826.407 308.33,829.167 281.665,830.025 C249.657,831.055 217.825,829.059 186.103,824.79 C182.86,824.354 181.566,823.583 181.653,820.037 C182.295,793.92 183.753,767.843 185.103,741.759 C185.259,738.748 185.825,736.729 189.688,737.345 C192.695,737.825 195.544,736.631 198.202,735.078 C212.848,726.521 227.483,717.947 242.21,709.532 C245.671,707.555 247.09,705.018 246.926,701.043 C245.59,668.633 244.367,636.218 243.123,603.805 C243.034,601.478 243.053,599.147 243.022,596.818 C244.808,594.855 247.219,595.009 249.524,595.005 C277.946,594.961 306.369,594.962 334.791,594.997 C336.957,595 339.136,595.02 340.989,596.42" fill="#FEFB82"/>
    <path d="M96.992,694.275 C99.028,689.501 101.55,684.971 101.913,679.712 C102.537,670.68 98.312,665.111 89.454,663.434 C73.303,660.376 57.012,669.655 48.789,686.635 C44.079,696.36 42.712,706.574 44.507,717.074 C38.363,717.074 32.251,717.053 26.139,717.083 C22.497,717.1 23.852,714.434 24.024,712.813 C25.409,699.742 26.949,686.688 28.425,673.628 C31.582,645.688 34.932,617.769 37.769,589.797 C38.749,580.139 35.65,570.683 34.387,561.142 C32.795,549.11 30.978,537.102 28.926,525.141 C28.22,521.027 29.812,520.156 33.396,519.885 C55.459,518.217 77.51,516.392 99.566,514.633 C127.092,512.437 154.62,510.276 182.142,508.032 C184.734,507.821 186.776,507.095 186.955,511.181 C188.064,536.603 190.129,562.004 190.506,587.432 C190.806,607.691 189.221,627.982 188.352,648.254 C187.326,672.182 186.1,696.102 185.152,720.032 C185.023,723.283 184.355,724.089 180.938,723.879 C167.326,723.046 153.69,722.576 140.058,722.122 C136.134,721.991 133.266,720.477 129.93,718.27 C124.857,714.915 121.759,712.241 122.442,705.294 C122.987,699.753 117.147,695.544 110.514,694.571 C108.219,694.234 105.875,694.157 103.551,694.112 C101.44,694.072 99.346,694.953 96.992,694.275" fill="#FEFEFE"/>
    <path d="M407.409,846.005 C410.596,851.312 411.095,857.215 411.429,862.944 C412.723,885.093 422.761,903.261 436.473,919.895 C449.733,935.979 465.467,949.726 479.237,965.327 C486.305,973.336 492.836,981.719 497.634,991.32 C509.643,1015.35 506.629,1040.82 487.609,1059.91 C462.042,1085.57 430.929,1094.22 395.596,1085.41 C376.138,1080.56 365.708,1066.08 358.878,1048.38 C348.424,1021.29 350.604,994.23 359.362,967.274 C367.957,940.82 380.281,915.955 392.303,890.971 C397.948,879.24 402.62,867.237 404.013,854.134 C404.315,851.291 404.717,848.179 407.409,846.005" fill="#FEFEFE"/>
    <path d="M340.989,596.42 C308.333,596.551 275.677,596.682 243.021,596.816 C242.31,572.379 244.31,547.988 244.019,523.666 C245.401,523.061 245.79,524.015 246.251,524.591 C262.045,544.323 307.513,544.659 320.998,512.68 C321.869,510.614 323.058,509.814 325.334,509.459 C332.394,508.356 339.442,507.062 346.387,505.392 C349.198,504.715 350.508,505.535 352.082,507.628 C362.407,521.364 368.765,537.09 374.671,552.974 C399.552,619.887 419.471,688.218 432.553,758.458 C434.014,766.299 434.793,774.266 436,782.157 C436.386,784.679 436.037,786.045 433.079,786.656 C421.689,789.01 410.338,791.567 399.029,794.287 C395.96,795.025 395.394,793.733 394.812,791.238 C384.535,747.21 374.877,703.021 363.597,659.251 C356.424,631.415 354.894,603.156 352.878,574.821 C352.37,567.686 352.061,560.534 351.424,553.411 C350.968,548.307 348.454,546.03 344.274,546.356 C340.154,546.678 338.189,549.518 338.496,554.592 C339.34,568.534 340.16,582.477 340.989,596.42" fill="#FEFEFE"/>
    <path d="M280.467,1129.29 C281.029,1131.82 280.324,1133.34 277.344,1133.53 C269.568,1134.01 261.803,1134.69 254.041,1135.38 C251.597,1135.6 251.016,1134.53 250.768,1132.27 C249.267,1118.59 247.611,1104.94 245.97,1091.28 C243.241,1068.56 239.544,1045.98 235.601,1023.46 C229.313,987.537 222.5,951.709 215.84,915.856 C213.872,905.258 211.763,894.684 209.518,884.142 C208.934,881.4 209.023,880.793 212.216,881.107 C223.772,882.247 235.314,883.765 246.966,883.655 C248.298,883.642 249.651,883.552 250.958,883.741 C261.799,885.308 261.073,882.471 261.983,894.644 C263.243,911.506 265.182,928.316 266.643,945.164 C267.862,959.213 268.762,973.29 269.892,987.347 C271.434,1006.52 273.076,1025.69 274.642,1044.87 C275.372,1053.8 276.094,1062.73 276.698,1071.67 C277.996,1090.87 279.215,1110.08 280.467,1129.29" fill="#797979"/>
    <path d="M358.894,927.814 C360.108,931.929 357.217,935.808 355.528,939.865 C348.543,956.64 342.723,973.756 340.298,991.828 C336.266,1021.88 341.012,1050.09 358.769,1075.35 C360.288,1077.51 361.952,1079.79 364.068,1081.27 C370.541,1085.8 372.464,1092.15 372.771,1099.62 C373.18,1109.56 374.007,1119.5 374.783,1129.43 C375.015,1132.39 374.118,1133.48 370.984,1133.63 C363.867,1133.96 356.766,1134.71 349.671,1135.41 C346.572,1135.71 345.008,1135.27 344.657,1131.43 C342.544,1108.31 339.587,1085.29 335.851,1062.37 C331.823,1037.67 327.64,1012.98 323.322,988.325 C317.4,954.51 310.954,920.793 304.015,887.171 C303.401,884.198 304.024,882.783 307.619,882.454 C321.833,881.154 335.963,879.091 349.767,875.369 C353.092,874.472 354.453,875.161 354.729,878.446 C356.092,894.65 357.462,910.854 358.894,927.814" fill="#797979"/>
    <path d="M463.911,391.636 C463.292,390.964 462.76,391.276 462.24,391.781 C449.67,403.988 434.911,404.476 419.177,399.854 C402.577,394.978 391.093,384.796 387.47,367.524 C384.561,353.658 389.354,341.193 397.297,330.079 C406.938,316.59 419.889,308.819 437.038,309.633 C451.945,310.341 462.502,318.162 470.162,330.39 C472.609,334.296 474.544,338.521 476.714,342.601 C474.478,359.477 470.562,375.913 463.911,391.636" fill="#FFD5BA"/>
    <path d="M81.051,339.63 C86.215,332.153 90.725,324.309 98.273,318.593 C116.102,305.091 141.36,306.22 156.303,324.741 C163.665,333.865 168.465,344.372 169.549,355.975 C170.532,366.49 166.089,375.778 159.669,383.975 C150.503,395.677 139.147,403.479 123.555,402.538 C114.713,402.005 106.243,399.631 98.292,395.589 C97.431,395.151 96.444,394.961 95.515,394.656 C87.824,377.068 83.443,358.61 81.051,339.63" fill="#FFD5BA"/>
    <path d="M198.243,719.849 C200.886,649.986 207.319,580.924 198.916,510.716 C209.997,514.057 219.738,516.994 229.478,519.93 C231.783,520.625 231.087,522.454 231.056,524.052 C230.66,544.19 230.038,564.328 229.94,584.468 C229.811,610.929 231.65,637.34 232.564,663.775 C232.943,674.749 233.39,685.72 233.832,696.691 C233.888,698.069 233.871,699.199 232.405,700.041 C221.209,706.473 210.058,712.984 198.243,719.849" fill="#FEFEFE"/>
    <path d="M71.832,503.606 C61.576,504.557 51.315,505.465 41.066,506.491 C38.86,506.712 37.734,506.002 37.07,503.87 C30.413,482.506 25.03,460.956 26.837,438.273 C27.331,432.069 28.858,426.139 31.586,420.558 C40.61,402.096 60.477,397.936 76.016,411.29 C89.438,422.826 97.939,437.907 105.824,453.368 C108.918,459.436 111.349,465.843 114.474,471.893 C118.511,479.707 119.368,487.928 119,496.533 C118.876,499.449 117.734,500.324 115.214,500.474 C110.405,500.761 105.599,501.1 100.792,501.418 C99.508,498.645 101.77,496.763 102.571,494.534 C103.431,492.142 104.448,489.643 102.714,487.435 C100.736,484.917 98.112,486.378 95.832,487.145 C88.753,489.529 83.114,494.177 77.715,499.114 C75.873,500.797 74.118,502.532 71.832,503.606" fill="#DCBF5C"/>
    <path d="M267.92,871.457 C240.975,870.991 214.153,869.066 187.531,864.659 C184.915,864.226 183.671,863.455 183.847,860.62 C184.267,853.819 184.553,847.008 184.76,840.197 C184.845,837.425 186.375,838.092 188.114,838.306 C214.865,841.594 241.706,843.696 268.672,843.425 C298.298,843.128 327.757,840.851 356.825,834.753 C359.951,834.097 362.36,833.67 362.147,838.484 C361.928,843.431 362.311,848.511 363.258,853.37 C364.051,857.431 362.343,858.499 359.036,859.469 C335.135,866.477 310.718,870.026 285.858,870.85 C279.88,871.048 273.921,871.794 267.92,871.457" fill="#9C9C9C"/>
    <path d="M131.883,483.745 C132.214,466.545 133.44,449.497 140.815,433.56 C143.713,427.297 147.453,421.664 153.221,417.58 C167.062,407.783 181.65,409.922 191.82,423.414 C202.191,437.174 206.891,453.324 210.708,469.735 C212.85,478.948 214.183,488.349 215.868,497.668 C216.465,500.971 215.82,501.957 211.97,501.065 C207.446,500.016 204.039,496.974 199.744,495.671 C193.371,493.738 186.944,494.485 180.533,494.99 C166.445,496.101 152.373,497.426 138.285,498.538 C131.916,499.041 131.906,498.906 131.895,492.738 C131.892,491.239 131.885,489.74 131.883,488.241 C131.881,486.742 131.883,485.244 131.883,483.745" fill="#DCBF5C"/>
    <path d="M165.828,49.58 C136.941,61.306 114.277,81.436 93.029,103.48 C57.394,140.449 40.33,186.663 27.986,235.086 C21.352,261.112 18.546,287.698 19.014,314.59 C19.241,316.681 20.511,318.937 18.062,320.605 C10.243,279.242 10.518,237.991 23.078,197.685 C39.639,144.537 68.743,99.618 114.949,67.198 C129.22,57.184 145.133,50.442 162.768,48.613 C163.958,48.397 165.462,47.19 165.828,49.58" fill="#FEFEFE"/>
    <path d="M329.918,1149.57 C348.038,1148.23 365.443,1146.96 382.844,1145.63 C385.214,1145.45 387.154,1145.45 387.335,1148.58 C388.159,1162.84 389.533,1177.1 387.18,1191.37 C386.727,1194.11 385.544,1195.32 382.923,1195.98 C363.068,1200.98 343.091,1205.22 322.57,1206.32 C318.047,1206.56 313.578,1206.04 309.213,1204.99 C303.884,1203.7 302.441,1200.91 304.321,1195.72 C305.768,1191.73 308.424,1188.49 311.623,1185.76 C317.741,1180.52 324.598,1176.49 332.008,1173.34 C337.992,1170.8 339.01,1167.77 336.078,1161.92 C334.147,1158.06 332.229,1154.2 329.918,1149.57" fill="#DBA76F"/>
    <path d="M233.905,1149.59 C252.034,1148.23 269.27,1146.96 286.503,1145.65 C288.954,1145.46 291.195,1145.25 291.382,1148.72 C292.154,1162.98 293.568,1177.24 291.157,1191.5 C290.74,1193.97 289.81,1195.24 287.301,1195.88 C267.297,1200.97 247.153,1205.19 226.476,1206.35 C222.121,1206.59 217.814,1206.03 213.599,1205.11 C207.777,1203.84 206.289,1200.78 208.566,1195.17 C210.991,1189.2 215.778,1185.29 220.834,1181.71 C225.461,1178.43 230.419,1175.71 235.649,1173.49 C242.162,1170.72 243.138,1167.8 239.849,1161.37 C237.965,1157.69 236.122,1153.99 233.905,1149.59" fill="#DBA76F"/>
    <path d="M113.853,726.444 C117.232,726.453 120.894,725.839 122.531,729.255 C124.323,732.994 121.878,735.99 119.348,738.49 C113.681,744.09 106.95,746.665 98.913,745.18 C88.078,743.178 78.35,738.686 69.769,731.853 C53.685,719.043 52.314,699.119 66.332,683.917 C70.81,679.061 76.365,676.324 82.933,675.808 C88.797,675.347 89.924,676.822 87.909,682.282 C85.234,689.528 80.757,695.757 76.344,701.986 C74.038,705.24 72.539,708.511 75.534,711.905 C78.516,715.284 81.968,714.254 85.478,712.379 C92.027,708.882 99.023,707.017 106.512,707.174 C109.568,707.238 110.314,708.466 108.776,711.098 C108.19,712.101 107.677,713.156 107.009,714.101 C104.941,717.026 102.987,719.987 105.222,723.654 C107.329,727.11 110.679,726.953 113.853,726.444" fill="#FEF8EA"/>
    <path d="M425.047,864.685 C423.7,857.994 423.562,851.305 421.396,844.999 C417.909,834.844 411.011,830.601 402.666,833.628 C397.554,835.483 394.651,839.506 393.083,844.404 C392.208,847.137 390.729,849.115 388.48,850.652 C387.195,851.531 385.984,853.451 384.234,852.177 C382.836,851.158 382.869,849.223 383.123,847.534 C384.142,840.754 387.536,835.066 391.495,829.668 C397.182,821.915 404.504,815.372 408.676,806.498 C409.351,805.061 410.677,804.917 411.97,804.625 C419.096,803.019 426.221,801.409 433.343,799.789 C435.219,799.362 436.718,799.26 437.915,801.412 C448.68,820.759 446.597,843.086 434.445,858.139 C432.023,861.139 429.071,863.467 425.047,864.685" fill="#FEF8EA"/>
    <path d="M502.899,132.791 C499.686,137.061 494.806,139.041 490.428,141.626 C477.306,149.373 463.429,155.063 448.138,157.077 C444.65,157.536 442.553,156.968 440.582,154.13 C438.713,151.44 436.338,149.102 433.931,146.313 C441.343,142.968 447.952,139.28 453.076,133.413 C464.313,120.543 467.402,105.353 465.898,88.831 C480.33,101.718 492.126,116.824 502.899,132.791" fill="#FEFEFE"/>
    <path d="M452.586,900.421 C455.33,900.398 457.155,898.748 458.941,896.931 C473.408,882.209 487.995,867.603 502.301,852.726 C505.383,849.521 506.688,850.353 508.779,853.46 C515.114,862.872 515.203,862.816 506.851,870.302 C489.878,885.517 472.836,900.657 455.993,916.014 C453.265,918.501 452.102,918.16 449.877,915.505 C444.519,909.112 439.532,902.49 435.035,895.467 C433.529,893.114 433.383,891.156 434.582,888.588 C438.998,879.138 442.206,869.166 448.683,860.658 C453.256,854.652 455.118,847.225 456.784,839.887 C457.158,838.239 456.446,835.481 458.75,835.406 C461.098,835.331 463.883,836.106 465.745,837.492 C467.339,838.677 465.448,840.808 464.851,842.424 C458.918,858.483 452.872,874.501 446.984,890.576 C445.088,895.753 447.801,900.262 452.586,900.421" fill="#92C185"/>
    <path d="M510.978,329.517 C511.173,333.691 510.823,337.828 509.786,341.873 C507.322,351.486 501.434,357.385 491.427,359.13 C488.128,359.706 487.211,359.029 487.866,355.731 C490.458,342.675 491.782,329.47 492.201,316.171 C492.253,314.512 492.356,312.853 492.365,311.194 C492.401,305.131 492.869,304.716 498.848,305.621 C503.793,306.37 506.826,309.455 508.616,313.874 C510.643,318.88 511.189,324.152 510.978,329.517" fill="#FEF8EA"/>
    <path d="M63.041,305.488 C65.177,305.062 65.98,305.971 65.951,308.438 C65.764,324.608 67.39,340.623 70.526,356.479 C71.044,359.093 70.551,359.547 67.837,359.103 C58.7,357.609 52.648,352.566 50.007,343.826 C47.156,334.39 47.136,324.78 50.063,315.333 C52.146,308.61 56.604,305.38 63.041,305.488" fill="#FEF8EA"/>
    <path d="M306.697,511.661 C299.393,522.105 289.689,525.29 278.609,525.074 C268.466,524.877 259.474,521.991 253.523,511.998 C271.31,513.037 288.454,513.206 306.697,511.661" fill="#FEF7E9"/>
    <path d="M71.832,503.606 C78.566,495.601 86.429,489.118 96.403,485.53 C98.949,484.614 101.689,483.789 103.846,486.159 C105.912,488.429 105.189,491.204 104.265,493.708 C103.293,496.347 101.964,498.854 100.791,501.418 C91.138,502.147 81.485,502.877 71.832,503.606" fill="#FEFEFD"/>
    <path d="M18.062,320.605 C19.589,318.791 18.37,316.544 19.014,314.591 C20.156,318.571 20.428,322.558 19.1,326.558 C18.755,324.574 18.408,322.589 18.062,320.605" fill="#ECD4B9"/>
    <path d="M371.748,750.632 C370.638,751.442 371.181,752.776 370.746,753.8 C369.279,750.951 370.291,747.798 369.594,744.81 C371.348,746.415 371.607,748.502 371.748,750.632" fill="#6E4100"/>
    <path d="M165.828,49.58 C165.057,48.47 163.79,48.928 162.768,48.613 C165.033,47.324 167.512,47.729 169.938,47.705 C168.924,49.11 167.402,49.401 165.828,49.58" fill="#F7EDE3"/>
    <path d="M496.929,250.174 C496.899,255.553 493.3,258.194 488.345,257.019 C473.038,253.391 458.554,247.505 444.73,240.138 C391.941,212.005 349.713,172.215 316.159,122.946 C315.785,122.396 315.475,121.803 315.129,121.234 C311.989,116.085 312.19,112.684 315.777,110.325 C319.392,107.949 322.974,109.315 326.315,114.47 C331.478,122.437 336.902,130.223 342.876,137.595 C375.347,177.663 413.472,210.833 460.311,233.246 C470.067,237.915 480.208,241.682 490.756,244.225 C494.336,245.088 496.847,246.845 496.929,250.174" fill="#6E4100"/>
    <path d="M171.365,295.961 C171.386,290.044 174.412,284.656 175.061,279.194 C175.647,274.271 170.683,269.249 170.809,263.384 C170.872,260.451 171.148,257.918 174.463,257.29 C177.225,256.768 179.432,257.728 180.009,260.83 C180.434,263.114 180.602,265.449 181.105,267.713 C181.69,270.355 182.846,272.22 186.23,271.556 C188.971,271.017 191.423,272.289 193.584,273.985 C203.83,282.025 206.415,299.363 198.986,310.076 C195.77,314.715 191.638,318.069 185.744,317.336 C179.681,316.582 175.552,312.794 173.214,307.176 C171.727,303.601 171.289,299.814 171.365,295.961" fill="#6E4100"/>
    <path d="M357.341,296.447 C357.285,290.529 359.928,285.166 360.908,279.609 C361.829,274.381 356.349,269.373 356.794,263.365 C356.917,261.708 356.631,260.03 357.879,258.662 C359.112,257.31 360.678,256.96 362.409,257.252 C364.431,257.594 365.682,258.763 365.994,260.834 C366.316,262.969 366.507,265.132 366.962,267.238 C367.554,269.974 368.478,272.271 372.208,271.552 C374.953,271.022 377.414,272.277 379.56,273.989 C389.663,282.049 392.367,298.959 385.245,309.682 C382.036,314.514 377.832,318.103 371.706,317.332 C365.431,316.543 361.273,312.558 358.995,306.706 C357.717,303.422 357.296,299.963 357.341,296.447" fill="#6E4100"/>
    <path d="M280.052,422.658 C276.095,422.571 272.69,420.973 269.778,418.328 C265.175,414.148 261.591,409.166 258.713,403.679 C256.954,400.327 256.937,396.899 260.538,395.038 C264.169,393.16 267.152,394.545 269.056,398.4 C270.899,402.13 273.449,405.427 276.214,408.558 C278.912,411.613 281.461,411.461 284.226,408.663 C287.175,405.678 289.265,402.073 291.698,398.714 C294.66,394.627 297.935,393.594 300.862,396.079 C304.218,398.929 303.482,402.131 301.216,405.358 C298.162,409.71 295.344,414.233 291.312,417.816 C288.096,420.674 284.458,422.449 280.052,422.658" fill="#6E4100"/>
    <path d="M186.595,167.43 C194.79,167.591 200.38,170.54 203.635,177.194 C204.91,179.8 204.994,182.591 202.079,184.16 C199.078,185.775 196.838,184.523 195.054,181.659 C190.863,174.93 179.148,175.516 175.727,182.779 C174.102,186.229 172.176,188.277 168.571,186.515 C164.837,184.689 165.495,181.2 167.046,178.282 C171.384,170.122 179.025,167.911 186.595,167.43" fill="#6E4300"/>
    <path d="M288.78,310.556 C288.57,313.883 287.416,316.049 284.912,317.143 C282.469,318.211 279.865,318.064 277.929,316.146 C275.567,313.805 273.719,310.979 272.437,307.896 C271.364,305.313 272.22,302.923 274.144,301.066 C276.143,299.136 278.915,298.7 281.114,299.974 C285.31,302.405 287.286,306.682 288.78,310.556" fill="#6F4300"/>
    <path d="M385.889,991.485 C388.956,991.662 391.296,993.457 391.747,996.805 C394.038,1013.81 405.396,1023.8 418.847,1032.2 C419.827,1032.82 420.967,1033.17 421.962,1033.76 C425.389,1035.8 426.163,1038.92 424.692,1042.34 C423.232,1045.73 420.225,1046.6 416.782,1045.62 C400.545,1041.02 380.43,1016.73 378.964,1000.021 C378.498,994.713 381.022,991.423 385.889,991.485" fill="#6E4100"/>
    <path d="M86.018,445.801 C86.17,448.222 85.117,450.521 83.918,452.688 C76.499,466.103 66.058,476.51 52.583,483.849 C50.061,485.223 47.398,485.962 44.488,485.963 C41.097,485.964 39.663,484.331 39.789,481.031 C39.901,478.123 40.922,475.486 42.307,473.032 C49.839,459.692 60.31,449.326 73.88,442.138 C75.812,441.114 77.863,440.538 80.022,440.24 C84.496,439.622 86.127,441.06 86.018,445.801" fill="#FEFEFE"/>
    <path d="M147.165,489.886 C145.131,489.641 142.377,490.276 140.845,487.601 C139.25,484.815 140.604,482.236 142.187,480.207 C153.624,465.551 168.703,456.868 186.951,453.697 C189.561,453.244 192.464,453.405 194.125,456.05 C195.979,459.001 194.211,461.644 192.588,463.858 C185.512,473.51 175.778,479.81 165.15,484.852 C159.577,487.496 153.833,489.683 147.165,489.886" fill="#FEFEFE"/>
  </g>
</svg>
